<svg height="100%" width="100%" viewBox="0 0 390.2 77" version="1.1"
     xmlns="http://www.w3.org/2000/svg" xmlns:xlink="http://www.w3.org/1999/xlink"
     stroke-miterlimit="10"
     style="fill-rule:nonzero;clip-rule:evenodd;stroke-linecap:round;stroke-linejoin:round;" xml:space="preserve">
  <defs>
    <clipPath id="clip0">
      <rect width="390.2" height="77" x="0" y="0"/>
    </clipPath>
  </defs>
  <g id="layer1" clip-path="url(#clip0)" fill="#4f4f4f" stroke="none" opacity="1">
    <path d="M 255.7 0 L 255.7 22.3 Q 255.7 26.3 255.2 29.8 L 255.8 29.8 Q 258.4 25.7 262.85 23.6 Q 267.3 21.5 272.5 21.5 Q 282.3 21.5 287.2 26.15 Q 292.1 30.8 292.1 41.1 L 292.1 76 L 283.4 76 L 283.4 41.7 Q 283.4 28.8 271.4 28.8 Q 262.4 28.8 259.05 33.85 Q 255.7 38.9 255.7 48.3 L 255.7 76 L 246.9 76 L 246.9 0 L 255.7 0 Z
    M 232.5 66.3 L 232.5 74.1 Q 228.5 75.6 224.25 76.3 Q 220 77 214.1 77 Q 203.2 77 195.9 72.5 Q 188.6 68 184.95 59.7 Q 181.3 51.4 181.3 40.2 Q 181.3 29.4 185.25 21.15 Q 189.2 12.9 196.9 8.25 Q 204.6 3.6 215.6 3.6 Q 226.9 3.6 235.3 7.8 L 231.7 15.4 Q 228.4 13.9 224.35 12.7 Q 220.3 11.5 215.5 11.5 Q 204 11.5 197.4 19.2 Q 190.8 26.9 190.8 40.3 Q 190.8 53.6 196.95 61.35 Q 203.1 69.1 215.4 69.1 Q 220.1 69.1 224.3 68.3 Q 228.5 67.5 232.5 66.3 Z
    M 9 45.7 L 9 76 L 0 76 L 0 4.6 L 39.9 4.6 L 39.9 12.5 L 9 12.5 L 9 37.8 L 38 37.8 L 38 45.7 L 9 45.7 Z
    M 98.4 76 L 88.3 76 L 68 22.4 L 77.4 22.4 L 88.8 54 Q 89.6 56.2 90.5 58.9 Q 91.4 61.6 92.1 64.05 Q 92.8 66.5 93.1 68.2 L 93.5 68.2 Q 93.9 66.5 94.65 64 Q 95.4 61.5 96.35 58.8 Q 97.3 56.1 98 54 L 109.4 22.4 L 118.8 22.4 L 98.4 76 Z
    M 348.2 39.5 L 348.2 76 L 341.8 76 L 340.1 68.4 L 339.7 68.4 Q 336.2 72.8 332.35 74.9 Q 328.5 77 321.7 77 Q 314.4 77 309.6 73.15 Q 304.8 69.3 304.8 61.1 Q 304.8 53.1 311.1 48.75 Q 317.4 44.4 330.5 44 L 339.6 43.7 L 339.6 40.5 Q 339.6 33.8 336.7 31.2 Q 333.8 28.6 328.5 28.6 Q 324.3 28.6 320.5 29.85 Q 316.7 31.1 313.4 32.7 L 310.7 26.1 Q 314.2 24.2 319 22.85 Q 323.8 21.5 329 21.5 Q 338.8 21.5 343.5 25.8 Q 348.2 30.1 348.2 39.5 Z
    M 170.1 45.6 L 170.1 50.9 L 133.4 50.9 Q 133.6 60 138.05 64.75 Q 142.5 69.5 150.5 69.5 Q 155.6 69.5 159.55 68.55 Q 163.5 67.6 167.7 65.8 L 167.7 73.5 Q 163.6 75.3 159.6 76.15 Q 155.6 77 150.1 77 Q 142.5 77 136.65 73.9 Q 130.8 70.8 127.55 64.65 Q 124.3 58.5 124.3 49.6 Q 124.3 40.8 127.25 34.5 Q 130.2 28.2 135.55 24.8 Q 140.9 21.4 148 21.4 Q 154.9 21.4 159.85 24.4 Q 164.8 27.4 167.45 32.85 Q 170.1 38.3 170.1 45.6 Z
    M 390.2 68.7 L 390.2 75.4 Q 388.8 76.1 386.2 76.55 Q 383.6 77 381.2 77 Q 377 77 373.45 75.55 Q 369.9 74.1 367.7 70.5 Q 365.5 66.9 365.5 60.4 L 365.5 29.2 L 357.9 29.2 L 357.9 25 L 365.6 21.5 L 369.1 10.1 L 374.3 10.1 L 374.3 22.4 L 389.8 22.4 L 389.8 29.2 L 374.3 29.2 L 374.3 60.2 Q 374.3 65.1 376.65 67.45 Q 379 69.8 382.7 69.8 Q 384.7 69.8 386.8 69.45 Q 388.9 69.1 390.2 68.7 Z
    M 50.7 22.4 L 59.5 22.4 L 59.5 76 L 50.7 76 L 50.7 22.4 Z
    M 339.5 49.8 L 331.6 50.1 Q 321.6 50.5 317.75 53.3 Q 313.9 56.1 313.9 61.2 Q 313.9 65.7 316.65 67.8 Q 319.4 69.9 323.7 69.9 Q 330.5 69.9 335 66.15 Q 339.5 62.4 339.5 54.6 L 339.5 49.8 Z
    M 133.6 43.9 L 160.9 43.9 Q 160.8 37.1 157.7 32.85 Q 154.6 28.6 147.9 28.6 Q 141.6 28.6 137.95 32.65 Q 134.3 36.7 133.6 43.9 Z
    M 55.2 2.3 Q 57.2 2.3 58.75 3.65 Q 60.3 5 60.3 7.9 Q 60.3 10.7 58.75 12.1 Q 57.2 13.5 55.2 13.5 Q 53 13.5 51.5 12.1 Q 50 10.7 50 7.9 Q 50 5 51.5 3.65 Q 53 2.3 55.2 2.3 Z"/>
  </g>
</svg>
