<svg xmlns="http://www.w3.org/2000/svg" xmlns:xlink="http://www.w3.org/1999/xlink" width="172" zoomAndPan="magnify" viewBox="0 0 129 32.249999" height="43" preserveAspectRatio="xMidYMid meet" version="1.2"><defs/><g id="0a34707f99"><g style="fill:#4f4f4f;fill-opacity:1;"><g transform="translate(4.828654, 23.088067)"><path style="stroke:none" d="M 14.015625 -16.03125 L 14.015625 -14.625 L 2.796875 -14.625 L 2.796875 0 L 1.203125 0 L 1.203125 -16.03125 Z M 14.015625 -13.5 L 14.015625 -12.09375 L 5.609375 -12.09375 L 5.609375 -9.640625 L 13.828125 -9.640625 L 13.828125 -8.234375 L 4 -8.234375 L 4 -13.5 Z M 13.828125 -7.109375 L 13.828125 -5.703125 L 5.609375 -5.703125 L 5.609375 0 L 4 0 L 4 -7.109375 Z M 13.828125 -7.109375 "/></g></g><g style="fill:#4f4f4f;fill-opacity:1;"><g transform="translate(20.432713, 23.088067)"><path style="stroke:none" d="M 2.796875 -16.03125 L 2.796875 0 L 1.203125 0 L 1.203125 -16.03125 Z M 5.609375 -16.03125 L 5.609375 0 L 4 0 L 4 -16.03125 Z M 5.609375 -16.03125 "/></g></g><g style="fill:#4f4f4f;fill-opacity:1;"><g transform="translate(28.104813, 23.088067)"><path style="stroke:none" d="M 1.625 -16.03125 L 6.953125 0 L 5.515625 0 L 0.09375 -16.03125 Z M 4.40625 -16.03125 L 7.828125 -5.0625 L 11.25 -16.03125 L 12.796875 -16.03125 L 7.828125 -0.796875 L 2.859375 -16.03125 Z M 15.5625 -16.03125 L 10.140625 0 L 8.6875 0 L 14.046875 -16.03125 Z M 15.5625 -16.03125 "/></g></g><g style="fill:#4f4f4f;fill-opacity:1;"><g transform="translate(44.630266, 23.088067)"><path style="stroke:none" d="M 13.828125 -16.03125 L 13.828125 -14.625 L 2.796875 -14.625 L 2.796875 -1.40625 L 14.015625 -1.40625 L 14.015625 0 L 1.203125 0 L 1.203125 -16.03125 Z M 13.828125 -13.5 L 13.828125 -12.09375 L 5.609375 -12.09375 L 5.609375 -10.03125 L 13.625 -10.03125 L 13.625 -8.640625 L 4 -8.640625 L 4 -13.5 Z M 13.625 -7.515625 L 13.625 -6.109375 L 5.609375 -6.109375 L 5.609375 -3.921875 L 14.015625 -3.921875 L 14.015625 -2.53125 L 4 -2.53125 L 4 -7.515625 Z M 13.625 -7.515625 "/></g></g><g style="fill:#4f4f4f;fill-opacity:1;"><g transform="translate(60.234325, 23.088067)"><path style="stroke:none" d="M 8.390625 0.5 C 6.734375 0.5 5.332031 0.171875 4.1875 -0.484375 C 3.050781 -1.140625 2.1875 -2.101562 1.59375 -3.375 C 1 -4.644531 0.703125 -6.203125 0.703125 -8.046875 C 0.703125 -9.910156 0.992188 -11.46875 1.578125 -12.71875 C 2.171875 -13.976562 3.03125 -14.925781 4.15625 -15.5625 C 5.28125 -16.207031 6.660156 -16.53125 8.296875 -16.53125 C 9.316406 -16.53125 10.3125 -16.394531 11.28125 -16.125 C 12.25 -15.851562 13.207031 -15.453125 14.15625 -14.921875 L 13.515625 -13.734375 C 12.660156 -14.203125 11.816406 -14.550781 10.984375 -14.78125 C 10.160156 -15.007812 9.3125 -15.125 8.4375 -15.125 C 6.425781 -15.125 4.90625 -14.523438 3.875 -13.328125 C 2.851562 -12.128906 2.34375 -10.378906 2.34375 -8.078125 C 2.34375 -6.535156 2.578125 -5.226562 3.046875 -4.15625 C 3.523438 -3.09375 4.222656 -2.285156 5.140625 -1.734375 C 6.066406 -1.179688 7.195312 -0.90625 8.53125 -0.90625 C 10.34375 -0.90625 12.039062 -1.429688 13.625 -2.484375 L 14.296875 -1.28125 C 13.304688 -0.664062 12.347656 -0.21875 11.421875 0.0625 C 10.492188 0.351562 9.484375 0.5 8.390625 0.5 Z M 8.59375 -1.984375 C 6.96875 -1.984375 5.722656 -2.492188 4.859375 -3.515625 C 4.003906 -4.546875 3.578125 -6.066406 3.578125 -8.078125 C 3.578125 -10.066406 4.003906 -11.554688 4.859375 -12.546875 C 5.722656 -13.546875 6.960938 -14.046875 8.578125 -14.046875 C 10.097656 -14.046875 11.550781 -13.601562 12.9375 -12.71875 L 12.265625 -11.5 C 11.648438 -11.894531 11.054688 -12.179688 10.484375 -12.359375 C 9.921875 -12.546875 9.335938 -12.640625 8.734375 -12.640625 C 7.941406 -12.640625 7.289062 -12.488281 6.78125 -12.1875 C 6.269531 -11.882812 5.882812 -11.394531 5.625 -10.71875 C 5.363281 -10.050781 5.234375 -9.171875 5.234375 -8.078125 C 5.234375 -6.421875 5.523438 -5.222656 6.109375 -4.484375 C 6.691406 -3.753906 7.550781 -3.390625 8.6875 -3.390625 C 9.988281 -3.390625 11.210938 -3.804688 12.359375 -4.640625 L 13.046875 -3.484375 C 12.285156 -2.960938 11.546875 -2.582031 10.828125 -2.34375 C 10.109375 -2.101562 9.363281 -1.984375 8.59375 -1.984375 Z M 8.59375 -1.984375 "/></g></g><g style="fill:#4f4f4f;fill-opacity:1;"><g transform="translate(75.618048, 23.088067)"><path style="stroke:none" d="M 2.796875 -16.03125 L 2.796875 0 L 1.203125 0 L 1.203125 -16.03125 Z M 5.609375 -16.03125 L 5.609375 -10.0625 L 10.609375 -10.0625 L 10.609375 -16.03125 L 12.21875 -16.03125 L 12.21875 -8.65625 L 4 -8.65625 L 4 -16.03125 Z M 15.015625 -16.03125 L 15.015625 0 L 13.421875 0 L 13.421875 -16.03125 Z M 12.21875 -7.53125 L 12.21875 0 L 10.609375 0 L 10.609375 -6.125 L 5.609375 -6.125 L 5.609375 0 L 4 0 L 4 -7.53125 Z M 12.21875 -7.53125 "/></g></g><g style="fill:#4f4f4f;fill-opacity:1;"><g transform="translate(92.704345, 23.088067)"><path style="stroke:none" d="M 6.953125 -16.03125 L 1.625 0 L 0.09375 0 L 5.515625 -16.03125 Z M 10.140625 -16.03125 L 15.5625 0 L 14.046875 0 L 8.6875 -16.03125 Z M 11.125 -4.90625 L 4.546875 -4.90625 L 7.828125 -15.25 Z M 7.828125 -10.984375 L 6.40625 -6.3125 L 9.25 -6.3125 Z M 11.484375 -3.78125 L 12.796875 0 L 11.25 0 L 10.46875 -2.390625 L 5.1875 -2.390625 L 4.40625 0 L 2.859375 0 L 4.1875 -3.78125 Z M 11.484375 -3.78125 "/></g></g><g style="fill:#4f4f4f;fill-opacity:1;"><g transform="translate(109.229798, 23.088067)"><path style="stroke:none" d="M 14.625 -16.03125 L 14.625 -14.625 L 0.296875 -14.625 L 0.296875 -16.03125 Z M 0.296875 -12.09375 L 0.296875 -13.5 L 6.875 -13.5 L 6.875 0 L 5.265625 0 L 5.265625 -12.09375 Z M 14.625 -13.5 L 14.625 -12.09375 L 9.671875 -12.09375 L 9.671875 0 L 8.078125 0 L 8.078125 -13.5 Z M 14.625 -13.5 "/></g></g></g></svg>